<svg xmlns="http://www.w3.org/2000/svg" aria-hidden="true" style="position:absolute;width:0;height:0;overflow:hidden"><defs><symbol id="icon-1" viewBox="0 0 30 32"><path fill="#2e2f42" d="m29.773 22.098-8.443-8.505.937-4.615c.242.094.499.144.758.146h.006a2.159 2.159 0 1 0-2.008-1.435l-4.96.605L7.972.161a.534.534 0 0 0-.377-.16.532.532 0 0 0-.373.155L5.709 1.66a.534.534 0 0 0 0 .754l.814.826a14.943 14.943 0 0 0 2.519 17.663.513.513 0 0 0 .146.098c-.034.18-.051.364-.052.547v6.187h-6.4a2.67 2.67 0 0 0-2.667 2.667v1.067c0 .295.239.533.533.533h24.533a.533.533 0 0 0 .533-.533v-1.067a2.67 2.67 0 0 0-2.667-2.667h-6.4v-2.742a15.09 15.09 0 0 0 3.049.32 14.854 14.854 0 0 0 7.04-1.783l.818.823a.534.534 0 0 0 .377.16.532.532 0 0 0 .373-.155l1.513-1.504a.534.534 0 0 0 0-.754zM22.28 6.233a1.067 1.067 0 1 1 .753 1.822h-.003a1.067 1.067 0 0 1-.747-1.823h-.002zm-1.256 3.505-.598 2.946-1.175-1.182 1.774-1.763zm-.605-.902-1.92 1.909-1.485-1.493 3.405-.415zM23.004 28.8a1.6 1.6 0 0 1 1.6 1.6v.533H1.137V30.4a1.6 1.6 0 0 1 1.6-1.6h20.267zm-7.467-2.133v1.067h-5.333v-1.067h5.333zM10.204 25.6v-4.053c0-1.294 1.196-2.347 2.667-2.347s2.667 1.053 2.667 2.347V25.6h-5.333zm6.4-1.696v-2.357c0-1.882-1.675-3.413-3.733-3.413A3.8 3.8 0 0 0 9.59 19.92 13.87 13.87 0 0 1 7.311 4.033l18.602 18.708a13.818 13.818 0 0 1-9.309 1.163zm11.289-.684L6.836 2.039l.755-.752 7.935 7.98c.004 0 .006.007.01.01l13.115 13.191-.757.752z" style="fill:var(--color1, #2e2f42)"/><path fill="#4d5ae5" d="M12.876 20.267h-.005a1.6 1.6 0 1 0-.004 3.2h.005a1.6 1.6 0 1 0 .004-3.2zm.373 1.978a.534.534 0 0 1-.752-.756.534.534 0 0 1 .373-.155.534.534 0 0 1 .374.911h.005z" style="fill:var(--color2, #4d5ae5)"/></symbol><symbol id="icon-2" viewBox="0 0 31 32"><path d="M30.797 15.301C30.795 6.849 23.942-.002 15.489 0S.186 6.855.188 15.308C.19 22.096 4.61 27.851 10.729 29.853l.108.031a.67.67 0 0 0 .529-.064.642.642 0 0 0 .284-.357l3.865-12.25a1.913 1.913 0 1 0-.851-3.63l.011-.005-5.106-5.107a.637.637 0 1 0-.902.902l5.104 5.109a1.873 1.873 0 0 0 .532 2.306l.004.003-3.683 11.673C3.346 25.783-.381 17.71 2.301 10.432 4.982 3.155 13.056-.573 20.333 2.109s11.004 10.755 8.323 18.032c-1.345 3.581-4.004 6.406-7.374 7.938l-.088.036-.398-1.875a.638.638 0 0 0-1.049-.343l.001-.001-3.837 3.425a.639.639 0 0 0 .227 1.084l.005.001 4.898 1.564a.637.637 0 0 0 .818-.743l.001.004-.391-1.839c5.528-2.374 9.329-7.772 9.329-14.057v-.034.002zm-15.305-.637a.638.638 0 0 1 0 1.276.638.638 0 0 1 0-1.276zm2.101 14.863 2.184-1.948.603 2.84-2.787-.892z"/></symbol><symbol id="icon-3" viewBox="0 0 41 32"><path d="M2.047 31.732H34.799c1.13 0 2.047-.916 2.047-2.047v-2.73c0-1.13-.916-2.047-2.047-2.047h-.683V7.892l3.876-3.671a2.057 2.057 0 1 0-.95-.964l-.005-.012-2.92 2.768V4.439c0-1.13-.916-2.047-2.047-2.047H4.777c-1.13 0-2.047.916-2.047 2.047v20.469h-.682c-1.13 0-2.047.916-2.047 2.047v2.731c0 1.13.916 2.047 2.047 2.047zM38.892 1.711a.683.683 0 0 1 0 1.366.683.683 0 0 1 0-1.366zM4.094 4.44a.68.68 0 0 1 .682-.682h27.292c.377 0 .682.305.682.682v2.865l-1.364 1.297V5.805a.682.682 0 0 0-.682-.682H6.141a.682.682 0 0 0-.682.682v17.057c0 .378.305.683.682.683h24.563a.682.682 0 0 0 .682-.683V10.479l1.364-1.293v15.722H4.093V4.44zm6.141 8.87h-.006a2.047 2.047 0 1 0 1.423 3.518l-.001.001 2.372 1.19c.275.138.61.073.815-.157l5.041-5.672 4.956 3.714a.682.682 0 0 0 .878-.051l4.307-4.08v10.408H6.823V6.488h23.199v3.405l-4.828 4.572-4.998-3.747a.679.679 0 0 0-.918.092l-.001.001-5.111 5.75-1.911-.956c.014-.082.023-.164.026-.248 0-1.13-.916-2.046-2.047-2.047zm.682 2.047a.683.683 0 0 1-1.366 0 .683.683 0 0 1 1.366 0zm4.094 10.917h6.823v.682a.682.682 0 0 1-.682.682h-5.459a.682.682 0 0 1-.682-.682v-.682zm-13.647.683c0-.377.306-.682.682-.682h11.599v.683c0 1.13.916 2.047 2.047 2.047h5.459c1.13 0 2.047-.916 2.047-2.047v-.683h11.598c.378 0 .683.305.683.682v2.73a.683.683 0 0 1-.683.682H2.046a.682.682 0 0 1-.682-.682v-2.73z"/></symbol><symbol id="icon-4" viewBox="0 0 29 32"><path d="M27.75 13.653a1.989 1.989 0 0 0-1.324-.79l-.011-.001a1.987 1.987 0 0 0-1.509.4l.004-.003-1.406 1.077-2.131 1.592-1.524-.607c2.718-1.219 4.619-3.939 4.619-7.096 0-4.293-3.506-7.784-7.816-7.784S8.836 3.933 8.836 8.225c0 1.556.465 3.002 1.258 4.22l-3.109-.027c-.01 0-.017.005-.026.006a.584.584 0 0 0-.174.034c-.015.006-.029.008-.043.015-.007.003-.014.003-.021.007L3.09 14.273.964 15.296a.448.448 0 0 0-.072.04l.002-.001a1.999 1.999 0 0 0-.666 2.587l-.005-.011a1.99 1.99 0 0 0 1.186.999 1.986 1.986 0 0 0 1.558-.15l-.01.005 1.558-.829 2.542-1.313 1.524-.01-6.11 6.082-.002.001-1.503 1.497c-.34.336-.55.802-.55 1.317v.006a1.872 1.872 0 0 0 1.874 1.868 1.87 1.87 0 0 0 1.325-.545l1.476-1.469 1.954-1.46 1.012 1.007-3.483 3.468c-.34.336-.55.802-.55 1.317v.005c0 .5.195.97.55 1.324.365.363.845.545 1.325.545s.96-.182 1.325-.545l3.91-3.892.001-.002 1.133-1.123-.005-.004c.007-.007.017-.01.025-.017l5.8-6.354 3.897.554a.594.594 0 0 0 .299-.038l-.004.001c.02-.007.037-.017.056-.026.021-.011.044-.017.064-.03l3.608-2.396c.013-.009.02-.023.033-.033.014-.011.032-.017.045-.029l1.428-1.337c.39-.365.633-.884.633-1.459 0-.449-.148-.864-.399-1.198l.004.005zM2.392 17.707a.8.8 0 0 1-.627.058.804.804 0 0 1-.241-1.413l.002-.002 1.475-.71.355 1.038.149.436-1.114.592zm3.927-2.052-1.739.898-.286-.839-.206-.602 2.275-1.123-.044 1.666zm16.953-7.434a6.502 6.502 0 0 1-.673 2.874l-4.695-2.132a2.092 2.092 0 0 0-.878-1.554l-.007-.004 1.644-5.457c2.669.848 4.609 3.339 4.609 6.273zm-13.236 0c0-3.632 2.969-6.588 6.618-6.588.284 0 .561.024.837.059l-1.608 5.337c-.021 0-.042-.006-.064-.006h-.001a2.102 2.102 0 0 0-2.102 2.095 2.103 2.103 0 0 0 2.102 2.096h.001c.78 0 1.453-.43 1.817-1.06l4.337 1.971a6.617 6.617 0 0 1-5.318 2.684c-3.649 0-6.618-2.956-6.618-6.588zm6.688.898a.903.903 0 0 1-.905.898h-.002a.904.904 0 0 1-.903-.898c0-.495.406-.898.905-.898s.905.403.905.898zM2.767 25.988a.68.68 0 0 1-.959.001.666.666 0 0 1 0-.948l1.08-1.076.956.952-1.076 1.072zm3.609 4.192a.681.681 0 0 1-.96.001.666.666 0 0 1 0-.948l1.081-1.077.956.952-1.077 1.072zm3.909-3.894-.002.001-1.982 1.976-.956-.952 1.98-1.972.002-.001c.045-.045.073-.099.101-.152.007-.016.022-.029.029-.045.019-.047.021-.096.028-.145.004-.027.016-.053.016-.081 0-.04-.014-.079-.022-.118-.007-.036-.007-.073-.021-.107a.569.569 0 0 0-.103-.154c-.011-.013-.015-.03-.028-.043h-.001l-.001-.002-1.804-1.797c-.019-.019-.044-.027-.065-.043a.626.626 0 0 0-.095-.063l-.003-.002a.57.57 0 0 0-.101-.036l-.004-.001a.492.492 0 0 0-.113-.022h-.025a.615.615 0 0 0-.087.006h.003a.6.6 0 0 0-.122.024l.004-.001a.636.636 0 0 0-.108.052l.002-.001c-.022.012-.048.017-.069.032l-1.991 1.487-1.011-1.007 2.694-2.68 4.895 4.816-1.041 1.032zm7.656-7.879c-.017-.002-.034.005-.051.003l-.029-.001a.6.6 0 0 0-.104.009l.004-.001a.547.547 0 0 0-.21.078l.002-.001a.521.521 0 0 0-.093.069c-.015.012-.032.019-.045.033l-5.276 5.778-4.859-4.78 3.181-3.164a.6.6 0 0 0-.425-1.023h-.002l-2.491.015.031-1.805 3.485.03a7.78 7.78 0 0 0 5.59 2.359h.004c.491 0 .97-.051 1.437-.138.045.036.089.072.146.095l2.705 1.078.171.851.2.994-3.372-.479zm4.538.201-.352-1.749 1.624-1.213 1.063 1.411-2.335 1.551zm4.215-3.179-.941.881-1.045-1.388.934-.715a.819.819 0 0 1 .609-.161.805.805 0 0 1 .444 1.383z"/></symbol></defs></svg>